<?xml version="1.0" encoding="UTF-8"?>
<svg id="Layer_2" data-name="Layer 2" xmlns="http://www.w3.org/2000/svg" viewBox="0 0 222.06 69.35">
  <defs>
    <style>
      .cls-1 {
        fill: none;
        stroke: #6b6c6c;
        stroke-linecap: round;
        stroke-linejoin: round;
        stroke-width: .95px;
      }

      .cls-2 {
        fill: #fada4b;
      }

      .cls-2, .cls-3, .cls-4, .cls-5, .cls-6, .cls-7 {
        stroke-width: 0px;
      }

      .cls-3 {
        fill: #282828;
      }

      .cls-4 {
        fill: #7e9885;
      }

      .cls-5 {
        fill: #2d2d2d;
      }

      .cls-6 {
        fill: #434343;
      }

      .cls-7 {
        fill: #fff;
      }
    </style>
  </defs>
  <g id="Layer_1-2" data-name="Layer 1">
    <g>
      <g>
        <path class="cls-5" d="M82.58,58.53c.32-2.94.57-5.6.75-7.96s.34-5.09.48-8.21c.13-3.11.23-6.4.3-9.85.07-3.46.1-6.2.1-8.25,2.09.05,3.78.08,5.07.08s2.97-.04,4.89-.11c1.92-.08,3.8-.11,5.62-.11,2.14,0,4.05.08,5.72.25,1.25.12,2.4.36,3.43.73,1.03.37,1.89.82,2.6,1.34.7.53,1.29,1.12,1.76,1.77.47.65.83,1.42,1.09,2.3.26.88.39,1.82.39,2.82,0,1.12-.14,2.17-.43,3.15-.28.98-.73,1.9-1.34,2.76-.61.86-1.38,1.61-2.31,2.23-.93.63-2.23,1.27-3.9,1.92l1.3,3.19c.37.89.76,1.79,1.18,2.71l3.36,7.35c.15.32.42.95.8,1.88-2.76-.03-4.62-.05-5.57-.05-1.2,0-3.18.02-5.92.05-.27-.87-.75-2.48-1.46-4.84-.28-.99-.53-1.75-.73-2.28-.4-1.19-1-2.85-1.78-4.99l-2.59-7.1c.9.17,1.79.25,2.66.25,1.22,0,2.33-.18,3.33-.55s1.75-.94,2.26-1.71c.51-.77.77-1.58.77-2.43,0-.72-.19-1.35-.58-1.9-.38-.54-.99-.95-1.82-1.22-.83-.27-2.1-.4-3.83-.4-.59,0-1.19.01-1.82.04s-1.36.05-2.2.06c-.21,3.43-.4,7.61-.57,12.55-.17,4.94-.27,9.78-.32,14.53-2.8-.03-4.62-.05-5.45-.05-.97,0-2.72.02-5.25.05Z"/>
        <path class="cls-5" d="M159.52,58.53c.42-3.95.72-7.17.91-9.66.35-4.55.62-9.07.79-13.57.18-4.49.26-8.17.26-11.03,2.27.03,4.29.05,6.04.05,1.19,0,2.89-.02,5.12-.05l-.6,9.09-.76,14.21-.1,3.49c2.88.05,4.75.08,5.62.08,4.4,0,7.73-.06,9.99-.18l-.55,7.58c-4.4-.03-8.59-.05-12.57-.05-5.39,0-10.11.02-14.16.05Z"/>
        <path class="cls-5" d="M194.77,58.53c.42-3.95.72-7.17.91-9.66.35-4.55.62-9.07.79-13.57.18-4.49.26-8.17.26-11.03,2.27.03,4.29.05,6.04.05,1.19,0,2.89-.02,5.12-.05l-.6,9.09-.76,14.21-.1,3.49c2.88.05,4.75.08,5.62.08,4.4,0,7.73-.06,9.99-.18l-.55,7.58c-4.4-.03-8.59-.05-12.57-.05-5.39,0-10.11.02-14.16.05Z"/>
      </g>
      <rect class="cls-3" x="123.01" y="24.25" width="26.55" height="2.83"/>
      <path class="cls-3" d="M136.7,33.02c-7.1,0-12.86,5.76-12.86,12.86s5.76,12.86,12.86,12.86,12.86-5.76,12.86-12.86-5.76-12.86-12.86-12.86ZM136.7,49.05c-1.75,0-3.18-1.42-3.18-3.18s1.42-3.18,3.18-3.18,3.18,1.42,3.18,3.18-1.42,3.18-3.18,3.18Z"/>
    </g>
  </g>
  <g id="Layer_3" data-name="Layer 3">
    <g>
      <g>
        <path class="cls-2" d="M62.06,51.9c.34,1.53.61,3.13.75,4.73,0,6.94-5.65,12.58-12.58,12.58H12.72c-6.94,0-12.58-5.64-12.58-12.58.87-9.51,5.33-17.81,11.8-23.4,5.12-4.43,11.49-7.16,18.32-7.45,7.92-.32,15.41,2.69,21.22,7.93,5.1,4.6,8.91,10.91,10.57,18.19ZM39.32,58.46c.14-1.94-.68-4.32-1.77-4.72-1.53-.61-2.31,3.03-5.06,4.69-3.23,1.94-6.12-.68-6.73-.17l-.1.17c-.68,1.46,1.05,3.74,2.45,4.83.58.47,2.21,1.56,4.39,1.5,3.4-.1,6.63-3.03,6.84-6.29ZM25.47,45.17c.31-2.81-3.09-6-6.08-5.71-3-.29-6.39,2.9-6.09,5.71-.3,2.81,3.09,6,6.09,5.71,3,.29,6.39-2.9,6.08-5.71Z"/>
        <path class="cls-4" d="M57.59,8.74c2.66,2.03,4.12,4.98,4.03,7.43.03,2.01-.86,4.35-2.7,6.24-1.83,1.89-4.62,3.34-7.43,3.89v7.42c-5.81-5.24-13.3-8.25-21.22-7.93-6.84.29-13.21,3.02-18.32,7.45h0v-6.93c-2.82-.55-5.62-1.99-7.46-3.89-1.85-1.89-2.74-4.24-2.71-6.26-.09-2.45,1.37-5.4,4.03-7.43,2.66-2.03,6.53-3.14,9.74-3.08,1.27,0,2.61.13,3.95.44C21.65,2.37,27.34,0,31.9.15c4.53-.15,10.17,2.18,12.36,5.87,1.22-.25,2.44-.36,3.59-.36,3.21-.07,7.07,1.05,9.74,3.08Z"/>
        <path class="cls-7" d="M37.54,53.74c1.09.41,1.91,2.79,1.77,4.72-.2,3.26-3.43,6.19-6.84,6.29-2.18.06-3.81-1.02-4.39-1.5-1.4-1.09-3.13-3.37-2.45-4.83l.1-.17c.61-.51,3.5,2.11,6.73.17,2.75-1.66,3.54-5.3,5.06-4.69Z"/>
        <path class="cls-7" d="M19.39,39.46c3-.29,6.39,2.9,6.08,5.71.31,2.81-3.09,6-6.08,5.71-3,.29-6.39-2.9-6.09-5.71-.3-2.81,3.09-6,6.09-5.71ZM24.45,45.17c.15-1.37-1.5-2.93-2.96-2.79-1.46-.14-3.11,1.42-2.96,2.79-.15,1.37,1.5,2.93,2.96,2.79,1.46.14,3.11-1.42,2.96-2.79Z"/>
        <path class="cls-6" d="M21.5,42.38c1.46-.14,3.11,1.42,2.96,2.79.15,1.37-1.5,2.93-2.96,2.79-1.46.14-3.11-1.42-2.96-2.79-.15-1.37,1.5-2.93,2.96-2.79Z"/>
      </g>
      <polyline class="cls-1" points="48.36 41.43 40.23 45.58 48.36 48.91"/>
    </g>
  </g>
</svg>